<svg width="1280" height="720" viewBox="0 0 1280 720" fill="none" xmlns="http://www.w3.org/2000/svg">
<rect width="1280" height="720" fill="#003F9E"/>
<path d="M191.2 334.64C186.72 334.64 183.157 333.36 180.512 330.8C177.909 328.24 176.608 324.699 176.608 320.176V301.104C176.608 296.581 177.909 293.04 180.512 290.48C183.157 287.92 186.72 286.64 191.2 286.64C195.68 286.64 199.221 287.92 201.824 290.48C204.469 293.04 205.792 296.56 205.792 301.04V320.176C205.792 324.699 204.469 328.24 201.824 330.8C199.221 333.36 195.68 334.64 191.2 334.64ZM191.2 327.6C193.376 327.6 195.019 327.024 196.128 325.872C197.237 324.677 197.792 322.992 197.792 320.816V300.464C197.792 298.288 197.237 296.624 196.128 295.472C195.019 294.277 193.376 293.68 191.2 293.68C189.024 293.68 187.381 294.277 186.272 295.472C185.163 296.624 184.608 298.288 184.608 300.464V320.816C184.608 322.992 185.163 324.677 186.272 325.872C187.381 327.024 189.024 327.6 191.2 327.6ZM213.383 334V298.8H220.039V303.92H220.231C220.359 302.213 220.956 300.827 222.023 299.76C223.09 298.693 224.434 298.16 226.055 298.16C227.634 298.16 228.978 298.672 230.087 299.696C231.196 300.677 231.943 302.021 232.327 303.728C232.498 302.021 233.116 300.677 234.183 299.696C235.292 298.672 236.679 298.16 238.343 298.16C240.476 298.16 242.247 299.013 243.655 300.72C245.063 302.384 245.767 304.539 245.767 307.184V334H238.727V307.76C238.727 306.608 238.45 305.712 237.895 305.072C237.383 304.389 236.636 304.048 235.655 304.048C233.735 304.048 232.775 305.285 232.775 307.76V334H226.375V307.76C226.375 306.608 226.119 305.712 225.607 305.072C225.138 304.389 224.434 304.048 223.495 304.048C221.447 304.048 220.423 305.285 220.423 307.76V334H213.383ZM268.014 334.64C265.027 334.64 262.425 334.064 260.206 332.912C257.987 331.76 256.259 330.139 255.022 328.048C253.827 325.915 253.23 323.419 253.23 320.56V312.24C253.23 309.381 253.827 306.907 255.022 304.816C256.259 302.683 257.987 301.04 260.206 299.888C262.425 298.736 265.027 298.16 268.014 298.16C270.958 298.16 273.518 298.736 275.694 299.888C277.913 301.04 279.619 302.661 280.814 304.752C282.051 306.8 282.67 309.211 282.67 311.984V318.384H260.91V320.816C260.91 323.205 261.529 325.019 262.766 326.256C264.003 327.451 265.753 328.048 268.014 328.048C269.678 328.048 271.086 327.771 272.238 327.216C273.433 326.619 274.137 325.765 274.35 324.656H282.286C281.731 327.685 280.153 330.117 277.55 331.952C274.947 333.744 271.769 334.64 268.014 334.64ZM260.91 311.984V313.2L274.99 313.136V311.92C274.99 309.488 274.393 307.611 273.198 306.288C272.003 304.965 270.275 304.304 268.014 304.304C265.667 304.304 263.897 304.987 262.702 306.352C261.507 307.675 260.91 309.552 260.91 311.984ZM296.853 345.52V338.864H306.773C308.65 338.864 310.101 338.352 311.125 337.328C312.149 336.347 312.661 335.003 312.661 333.296V331.184L312.789 325.68C312.064 327.643 310.89 329.179 309.269 330.288C307.69 331.355 305.749 331.888 303.445 331.888C299.861 331.888 297.002 330.693 294.869 328.304C292.778 325.872 291.733 322.587 291.733 318.448V311.6C291.733 307.504 292.778 304.24 294.869 301.808C297.002 299.376 299.861 298.16 303.445 298.16C305.749 298.16 307.69 298.715 309.269 299.824C310.89 300.891 312.064 302.427 312.789 304.432V298.8H320.597V333.488C320.597 337.2 319.36 340.123 316.885 342.256C314.453 344.432 311.125 345.52 306.901 345.52H296.853ZM306.133 325.04C308.181 325.04 309.76 324.443 310.869 323.248C312.021 322.011 312.597 320.304 312.597 318.128V311.984C312.597 309.808 312.021 308.123 310.869 306.928C309.76 305.691 308.181 305.072 306.133 305.072C304.085 305.072 302.506 305.669 301.397 306.864C300.288 308.016 299.733 309.637 299.733 311.728V318.384C299.733 320.475 300.288 322.117 301.397 323.312C302.506 324.464 304.085 325.04 306.133 325.04ZM340.796 334.64C337.212 334.64 334.375 333.637 332.284 331.632C330.236 329.584 329.212 326.917 329.212 323.632C329.212 320.219 330.385 317.509 332.732 315.504C335.079 313.456 338.3 312.432 342.396 312.432H350.972V309.936C350.972 306.395 348.903 304.624 344.764 304.624C342.887 304.624 341.393 304.987 340.284 305.712C339.175 306.437 338.556 307.461 338.428 308.784H330.748C330.919 305.627 332.241 303.067 334.716 301.104C337.233 299.141 340.604 298.16 344.828 298.16C349.308 298.16 352.785 299.205 355.26 301.296C357.735 303.387 358.972 306.331 358.972 310.128V334H351.164V327.408C350.865 329.669 349.799 331.44 347.964 332.72C346.129 334 343.74 334.64 340.796 334.64ZM343.356 328.112C345.703 328.112 347.559 327.536 348.924 326.384C350.289 325.232 350.972 323.696 350.972 321.776V317.616H342.78C341.031 317.616 339.644 318.107 338.62 319.088C337.596 320.069 337.084 321.328 337.084 322.864C337.084 324.443 337.617 325.723 338.684 326.704C339.793 327.643 341.351 328.112 343.356 328.112ZM381.155 334.64C376.419 334.64 372.664 333.339 369.891 330.736C367.16 328.133 365.795 324.613 365.795 320.176H373.795C373.795 322.48 374.435 324.315 375.715 325.68C377.038 327.003 378.851 327.664 381.155 327.664C383.416 327.664 385.208 327.003 386.531 325.68C387.854 324.357 388.515 322.544 388.515 320.24V287.28H396.515V320.24C396.515 324.677 395.128 328.197 392.355 330.8C389.624 333.36 385.891 334.64 381.155 334.64ZM421.642 334.64C418.485 334.64 415.711 334.085 413.322 332.976C410.975 331.867 409.141 330.288 407.818 328.24C406.538 326.149 405.898 323.675 405.898 320.816H413.77C413.77 322.907 414.474 324.571 415.882 325.808C417.333 327.045 419.253 327.664 421.642 327.664C423.946 327.664 425.759 327.067 427.082 325.872C428.447 324.635 429.13 322.992 429.13 320.944C429.13 319.408 428.682 318.064 427.786 316.912C426.933 315.717 425.695 314.907 424.074 314.48L417.802 312.88C414.431 312.027 411.765 310.427 409.802 308.08C407.839 305.733 406.858 302.939 406.858 299.696C406.858 295.728 408.159 292.571 410.762 290.224C413.365 287.835 416.842 286.64 421.194 286.64C424.138 286.64 426.698 287.173 428.874 288.24C431.093 289.307 432.799 290.821 433.994 292.784C435.189 294.704 435.786 296.965 435.786 299.568H427.978C427.978 297.776 427.359 296.325 426.122 295.216C424.885 294.107 423.242 293.552 421.194 293.552C419.189 293.552 417.589 294.107 416.394 295.216C415.242 296.283 414.666 297.691 414.666 299.44C414.666 300.891 415.071 302.085 415.882 303.024C416.735 303.963 417.909 304.645 419.402 305.072L425.866 306.672C429.322 307.525 432.031 309.232 433.994 311.792C435.999 314.352 437.002 317.403 437.002 320.944C437.002 323.717 436.362 326.128 435.082 328.176C433.845 330.224 432.074 331.824 429.77 332.976C427.466 334.085 424.757 334.64 421.642 334.64ZM459.825 334.64C458.033 334.64 456.582 334.107 455.473 333.04C454.406 331.931 453.873 330.501 453.873 328.752C453.873 327.003 454.406 325.573 455.473 324.464C456.582 323.355 458.033 322.8 459.825 322.8C461.617 322.8 463.046 323.355 464.113 324.464C465.222 325.573 465.777 327.003 465.777 328.752C465.777 330.501 465.222 331.931 464.113 333.04C463.046 334.107 461.617 334.64 459.825 334.64ZM498.2 334.64C493.72 334.64 490.157 333.36 487.512 330.8C484.909 328.24 483.608 324.699 483.608 320.176V301.104C483.608 296.581 484.909 293.04 487.512 290.48C490.157 287.92 493.72 286.64 498.2 286.64C502.68 286.64 506.221 287.92 508.824 290.48C511.469 293.04 512.792 296.56 512.792 301.04V320.176C512.792 324.699 511.469 328.24 508.824 330.8C506.221 333.36 502.68 334.64 498.2 334.64ZM498.2 327.6C500.376 327.6 502.019 327.024 503.128 325.872C504.237 324.677 504.792 322.992 504.792 320.816V300.464C504.792 298.288 504.237 296.624 503.128 295.472C502.019 294.277 500.376 293.68 498.2 293.68C496.024 293.68 494.381 294.277 493.272 295.472C492.163 296.624 491.608 298.288 491.608 300.464V320.816C491.608 322.992 492.163 324.677 493.272 325.872C494.381 327.024 496.024 327.6 498.2 327.6ZM522.303 334V298.8H530.111V305.392C530.538 303.173 531.583 301.424 533.247 300.144C534.911 298.821 537.023 298.16 539.583 298.16C543.039 298.16 545.791 299.312 547.839 301.616C549.93 303.92 550.975 307.013 550.975 310.896V334H542.975V311.856C542.975 309.68 542.399 308.016 541.247 306.864C540.138 305.669 538.623 305.072 536.703 305.072C534.698 305.072 533.119 305.669 531.967 306.864C530.858 308.059 530.303 309.765 530.303 311.984V334H522.303ZM575.014 334.64C572.027 334.64 569.425 334.064 567.206 332.912C564.987 331.76 563.259 330.139 562.022 328.048C560.827 325.915 560.23 323.419 560.23 320.56V312.24C560.23 309.381 560.827 306.907 562.022 304.816C563.259 302.683 564.987 301.04 567.206 299.888C569.425 298.736 572.027 298.16 575.014 298.16C577.958 298.16 580.518 298.736 582.694 299.888C584.913 301.04 586.619 302.661 587.814 304.752C589.051 306.8 589.67 309.211 589.67 311.984V318.384H567.91V320.816C567.91 323.205 568.529 325.019 569.766 326.256C571.003 327.451 572.753 328.048 575.014 328.048C576.678 328.048 578.086 327.771 579.238 327.216C580.433 326.619 581.137 325.765 581.35 324.656H589.286C588.731 327.685 587.153 330.117 584.55 331.952C581.947 333.744 578.769 334.64 575.014 334.64ZM567.91 311.984V313.2L581.99 313.136V311.92C581.99 309.488 581.393 307.611 580.198 306.288C579.003 304.965 577.275 304.304 575.014 304.304C572.667 304.304 570.897 304.987 569.702 306.352C568.507 307.675 567.91 309.552 567.91 311.984ZM625.165 341.68C618.68 340.187 613.666 337.264 610.125 332.912C606.584 328.517 604.813 323.099 604.813 316.656V305.2C604.813 298.8 606.584 293.424 610.125 289.072C613.666 284.72 618.68 281.776 625.165 280.24V288.176C621.368 289.072 618.36 291.056 616.141 294.128C613.965 297.157 612.877 300.848 612.877 305.2V316.656C612.877 321.008 613.965 324.72 616.141 327.792C618.36 330.821 621.368 332.784 625.165 333.68V341.68ZM639.86 341.68V333.68C643.657 332.784 646.644 330.821 648.82 327.792C651.039 324.72 652.148 321.008 652.148 316.656V305.2C652.148 300.848 651.039 297.157 648.82 294.128C646.644 291.056 643.657 289.072 639.86 288.176V280.24C646.345 281.776 651.359 284.72 654.9 289.072C658.441 293.424 660.212 298.8 660.212 305.2V316.656C660.212 323.099 658.441 328.517 654.9 332.912C651.359 337.264 646.345 340.187 639.86 341.68Z" fill="white"/>
<rect x="172" y="378" width="499" height="100" fill="white"/>
<path d="M218.592 445.48C216.32 445.48 214.352 445.064 212.688 444.232C211.024 443.368 209.728 442.168 208.8 440.632C207.904 439.064 207.456 437.224 207.456 435.112V419.848C207.456 417.736 207.904 415.912 208.8 414.376C209.728 412.808 211.024 411.608 212.688 410.776C214.352 409.912 216.32 409.48 218.592 409.48C220.832 409.48 222.784 409.912 224.448 410.776C226.112 411.608 227.408 412.808 228.336 414.376C229.264 415.912 229.728 417.736 229.728 419.848H223.68C223.68 418.216 223.232 416.968 222.336 416.104C221.472 415.208 220.224 414.76 218.592 414.76C216.96 414.76 215.696 415.192 214.8 416.056C213.904 416.92 213.456 418.168 213.456 419.8V435.112C213.456 436.744 213.904 438.008 214.8 438.904C215.696 439.8 216.96 440.248 218.592 440.248C220.224 440.248 221.472 439.8 222.336 438.904C223.232 438.008 223.68 436.744 223.68 435.112V431.224H217.728V426.04H229.728V435.112C229.728 437.224 229.264 439.064 228.336 440.632C227.408 442.168 226.112 443.368 224.448 444.232C222.784 445.064 220.832 445.48 218.592 445.48ZM247.229 445.48C244.989 445.48 243.037 445.048 241.373 444.184C239.709 443.32 238.413 442.104 237.485 440.536C236.589 438.936 236.141 437.064 236.141 434.92V428.68C236.141 426.536 236.589 424.68 237.485 423.112C238.413 421.512 239.709 420.28 241.373 419.416C243.037 418.552 244.989 418.12 247.229 418.12C249.437 418.12 251.357 418.552 252.989 419.416C254.653 420.28 255.933 421.496 256.829 423.064C257.757 424.6 258.221 426.408 258.221 428.488V433.288H241.901V435.112C241.901 436.904 242.365 438.264 243.293 439.192C244.221 440.088 245.533 440.536 247.229 440.536C248.477 440.536 249.533 440.328 250.397 439.912C251.293 439.464 251.821 438.824 251.981 437.992H257.933C257.517 440.264 256.333 442.088 254.381 443.464C252.429 444.808 250.045 445.48 247.229 445.48ZM241.901 428.488V429.4L252.461 429.352V428.44C252.461 426.616 252.013 425.208 251.117 424.216C250.221 423.224 248.925 422.728 247.229 422.728C245.469 422.728 244.141 423.24 243.245 424.264C242.349 425.256 241.901 426.664 241.901 428.488ZM278.603 445C276.139 445 274.171 444.296 272.699 442.888C271.259 441.448 270.539 439.512 270.539 437.08V424.024H263.243V418.6H270.539V411.16H276.587V418.6H287.099V424.024H276.587V436.936C276.587 437.704 276.795 438.344 277.211 438.856C277.659 439.336 278.267 439.576 279.035 439.576H286.859V445H278.603ZM307.384 445C304.92 445 302.952 444.296 301.48 442.888C300.04 441.448 299.32 439.512 299.32 437.08V424.024H292.024V418.6H299.32V411.16H305.368V418.6H315.88V424.024H305.368V436.936C305.368 437.704 305.576 438.344 305.992 438.856C306.44 439.336 307.048 439.576 307.816 439.576H315.64V445H307.384ZM322.773 445V439.576H331.797V424.024H323.733V418.6H337.797V439.576H345.909V445H322.773ZM334.389 414.184C333.173 414.184 332.213 413.88 331.509 413.272C330.805 412.632 330.453 411.784 330.453 410.728C330.453 409.672 330.805 408.84 331.509 408.232C332.213 407.592 333.173 407.272 334.389 407.272C335.605 407.272 336.565 407.592 337.269 408.232C337.973 408.84 338.325 409.672 338.325 410.728C338.325 411.784 337.973 412.632 337.269 413.272C336.565 413.88 335.605 414.184 334.389 414.184ZM351.602 445V418.6H357.458V423.544C357.778 421.88 358.562 420.568 359.81 419.608C361.058 418.616 362.642 418.12 364.562 418.12C367.154 418.12 369.218 418.984 370.754 420.712C372.322 422.44 373.106 424.76 373.106 427.672V445H367.106V428.392C367.106 426.76 366.674 425.512 365.81 424.648C364.978 423.752 363.842 423.304 362.402 423.304C360.898 423.304 359.714 423.752 358.85 424.648C358.018 425.544 357.602 426.824 357.602 428.488V445H351.602ZM383.984 453.64V448.648H391.424C392.832 448.648 393.92 448.264 394.688 447.496C395.456 446.76 395.84 445.752 395.84 444.472V442.888L395.936 438.76C395.392 440.232 394.512 441.384 393.296 442.216C392.112 443.016 390.656 443.416 388.928 443.416C386.24 443.416 384.096 442.52 382.496 440.728C380.928 438.904 380.144 436.44 380.144 433.336V428.2C380.144 425.128 380.928 422.68 382.496 420.856C384.096 419.032 386.24 418.12 388.928 418.12C390.656 418.12 392.112 418.536 393.296 419.368C394.512 420.168 395.392 421.32 395.936 422.824V418.6H401.792V444.616C401.792 447.4 400.864 449.592 399.008 451.192C397.184 452.824 394.688 453.64 391.52 453.64H383.984ZM390.944 438.28C392.48 438.28 393.664 437.832 394.496 436.936C395.36 436.008 395.792 434.728 395.792 433.096V428.488C395.792 426.856 395.36 425.592 394.496 424.696C393.664 423.768 392.48 423.304 390.944 423.304C389.408 423.304 388.224 423.752 387.392 424.648C386.56 425.512 386.144 426.728 386.144 428.296V433.288C386.144 434.856 386.56 436.088 387.392 436.984C388.224 437.848 389.408 438.28 390.944 438.28ZM448.794 445.48C446.426 445.48 444.346 445.064 442.554 444.232C440.794 443.4 439.418 442.216 438.426 440.68C437.466 439.112 436.986 437.256 436.986 435.112H442.89C442.89 436.68 443.418 437.928 444.474 438.856C445.562 439.784 447.002 440.248 448.794 440.248C450.522 440.248 451.882 439.8 452.874 438.904C453.898 437.976 454.41 436.744 454.41 435.208C454.41 434.056 454.074 433.048 453.402 432.184C452.762 431.288 451.834 430.68 450.618 430.36L445.914 429.16C443.386 428.52 441.386 427.32 439.914 425.56C438.442 423.8 437.706 421.704 437.706 419.272C437.706 416.296 438.682 413.928 440.634 412.168C442.586 410.376 445.194 409.48 448.458 409.48C450.666 409.48 452.586 409.88 454.218 410.68C455.882 411.48 457.162 412.616 458.058 414.088C458.954 415.528 459.402 417.224 459.402 419.176H453.546C453.546 417.832 453.082 416.744 452.154 415.912C451.226 415.08 449.994 414.664 448.458 414.664C446.954 414.664 445.754 415.08 444.858 415.912C443.994 416.712 443.562 417.768 443.562 419.08C443.562 420.168 443.866 421.064 444.474 421.768C445.114 422.472 445.994 422.984 447.114 423.304L451.962 424.504C454.554 425.144 456.586 426.424 458.058 428.344C459.562 430.264 460.314 432.552 460.314 435.208C460.314 437.288 459.834 439.096 458.874 440.632C457.946 442.168 456.618 443.368 454.89 444.232C453.162 445.064 451.13 445.48 448.794 445.48ZM480.071 445C477.607 445 475.639 444.296 474.167 442.888C472.727 441.448 472.007 439.512 472.007 437.08V424.024H464.711V418.6H472.007V411.16H478.055V418.6H488.567V424.024H478.055V436.936C478.055 437.704 478.263 438.344 478.679 438.856C479.127 439.336 479.735 439.576 480.503 439.576H488.327V445H480.071ZM503.285 445.48C500.597 445.48 498.469 444.728 496.901 443.224C495.365 441.688 494.597 439.688 494.597 437.224C494.597 434.664 495.477 432.632 497.237 431.128C498.997 429.592 501.413 428.824 504.484 428.824H510.917V426.952C510.917 424.296 509.365 422.968 506.261 422.968C504.853 422.968 503.733 423.24 502.901 423.784C502.069 424.328 501.605 425.096 501.509 426.088H495.749C495.877 423.72 496.869 421.8 498.725 420.328C500.613 418.856 503.141 418.12 506.309 418.12C509.669 418.12 512.277 418.904 514.133 420.472C515.989 422.04 516.917 424.248 516.917 427.096V445H511.061V440.056C510.837 441.752 510.037 443.08 508.661 444.04C507.285 445 505.493 445.48 503.285 445.48ZM505.205 440.584C506.965 440.584 508.357 440.152 509.381 439.288C510.405 438.424 510.917 437.272 510.917 435.832V432.712H504.773C503.461 432.712 502.421 433.08 501.653 433.816C500.885 434.552 500.501 435.496 500.501 436.648C500.501 437.832 500.901 438.792 501.701 439.528C502.533 440.232 503.701 440.584 505.205 440.584ZM525.25 445V418.6H531.106V423.736C531.426 422.008 532.21 420.648 533.458 419.656C534.738 418.632 536.386 418.12 538.402 418.12C541.09 418.12 543.186 418.984 544.69 420.712C546.194 422.44 546.946 424.856 546.946 427.96V430.456H540.946V428.248C540.946 426.648 540.53 425.432 539.698 424.6C538.866 423.736 537.682 423.304 536.146 423.304C534.546 423.304 533.33 423.784 532.498 424.744C531.666 425.704 531.25 427.064 531.25 428.824V445H525.25ZM566.415 445C563.951 445 561.983 444.296 560.511 442.888C559.071 441.448 558.351 439.512 558.351 437.08V424.024H551.055V418.6H558.351V411.16H564.399V418.6H574.911V424.024H564.399V436.936C564.399 437.704 564.607 438.344 565.023 438.856C565.471 439.336 566.079 439.576 566.847 439.576H574.671V445H566.415ZM592.604 445.48C590.364 445.48 588.412 445.048 586.748 444.184C585.084 443.32 583.788 442.104 582.86 440.536C581.964 438.936 581.516 437.064 581.516 434.92V428.68C581.516 426.536 581.964 424.68 582.86 423.112C583.788 421.512 585.084 420.28 586.748 419.416C588.412 418.552 590.364 418.12 592.604 418.12C594.812 418.12 596.732 418.552 598.364 419.416C600.028 420.28 601.308 421.496 602.204 423.064C603.132 424.6 603.596 426.408 603.596 428.488V433.288H587.276V435.112C587.276 436.904 587.74 438.264 588.668 439.192C589.596 440.088 590.908 440.536 592.604 440.536C593.852 440.536 594.908 440.328 595.772 439.912C596.668 439.464 597.196 438.824 597.356 437.992H603.308C602.892 440.264 601.708 442.088 599.756 443.464C597.804 444.808 595.42 445.48 592.604 445.48ZM587.276 428.488V429.4L597.836 429.352V428.44C597.836 426.616 597.388 425.208 596.492 424.216C595.596 423.224 594.3 422.728 592.604 422.728C590.844 422.728 589.516 423.24 588.62 424.264C587.724 425.256 587.276 426.664 587.276 428.488ZM618.938 445.48C616.378 445.48 614.298 444.568 612.698 442.744C611.13 440.92 610.346 438.472 610.346 435.4V428.248C610.346 425.144 611.13 422.68 612.698 420.856C614.266 419.032 616.346 418.12 618.938 418.12C620.762 418.12 622.298 418.584 623.546 419.512C624.826 420.44 625.722 421.736 626.234 423.4L626.042 417.352V409.96H632.042V445H626.186V440.2C625.706 441.864 624.842 443.16 623.594 444.088C622.346 445.016 620.794 445.48 618.938 445.48ZM621.194 440.296C622.73 440.296 623.914 439.832 624.746 438.904C625.61 437.976 626.042 436.664 626.042 434.968V428.632C626.042 426.936 625.61 425.624 624.746 424.696C623.914 423.768 622.73 423.304 621.194 423.304C619.658 423.304 618.458 423.72 617.594 424.552C616.762 425.384 616.346 426.664 616.346 428.392V435.208C616.346 436.936 616.762 438.216 617.594 439.048C618.458 439.88 619.658 440.296 621.194 440.296Z" fill="#003F9E"/>
<path d="M1052.95 350.712L973.412 396.863C966.662 400.775 958 396.038 958 388.15V295.85C958 287.975 966.65 283.225 973.412 287.15L1052.95 333.3C1054.49 334.177 1055.76 335.444 1056.65 336.973C1057.54 338.502 1058 340.238 1058 342.006C1058 343.774 1057.54 345.511 1056.65 347.04C1055.76 348.569 1054.49 349.836 1052.95 350.712Z" fill="white"/>
<path d="M914.464 454V430.64H922.24C923.797 430.64 925.152 430.939 926.304 431.536C927.477 432.133 928.384 432.976 929.024 434.064C929.664 435.131 929.984 436.389 929.984 437.84C929.984 439.291 929.664 440.56 929.024 441.648C928.384 442.715 927.477 443.547 926.304 444.144C925.152 444.741 923.797 445.04 922.24 445.04H918.464V454H914.464ZM918.464 441.52H922.24C923.371 441.52 924.267 441.179 924.928 440.496C925.589 439.813 925.92 438.928 925.92 437.84C925.92 436.752 925.589 435.867 924.928 435.184C924.267 434.501 923.371 434.16 922.24 434.16H918.464V441.52ZM943.636 454C941.886 454 940.478 453.477 939.411 452.432C938.366 451.387 937.844 450.011 937.844 448.304V434.256H932.052V430.64H941.844V448.208C941.844 448.869 942.025 449.403 942.388 449.808C942.772 450.192 943.284 450.384 943.924 450.384H949.076V454H943.636ZM958.023 454.32C956.231 454.32 954.812 453.819 953.767 452.816C952.743 451.792 952.231 450.459 952.231 448.816C952.231 447.109 952.818 445.755 953.991 444.752C955.164 443.728 956.775 443.216 958.823 443.216H963.111V441.968C963.111 440.197 962.076 439.312 960.007 439.312C959.068 439.312 958.322 439.493 957.767 439.856C957.212 440.219 956.903 440.731 956.839 441.392H952.999C953.084 439.813 953.746 438.533 954.983 437.552C956.242 436.571 957.927 436.08 960.039 436.08C962.279 436.08 964.018 436.603 965.255 437.648C966.492 438.693 967.111 440.165 967.111 442.064V454H963.207V450.704C963.058 451.835 962.524 452.72 961.607 453.36C960.69 454 959.495 454.32 958.023 454.32ZM959.303 451.056C960.476 451.056 961.404 450.768 962.087 450.192C962.77 449.616 963.111 448.848 963.111 447.888V445.808H959.015C958.14 445.808 957.447 446.053 956.935 446.544C956.423 447.035 956.167 447.664 956.167 448.432C956.167 449.221 956.434 449.861 956.967 450.352C957.522 450.821 958.3 451.056 959.303 451.056ZM974.843 459.76L977.339 453.04L970.715 436.4H974.939L978.331 445.392C978.523 445.925 978.715 446.512 978.907 447.152C979.099 447.771 979.237 448.347 979.323 448.88C979.387 448.347 979.504 447.771 979.675 447.152C979.867 446.512 980.059 445.925 980.251 445.392L983.387 436.4H987.611L979.035 459.76H974.843ZM1014.95 454L1009.06 430.64H1013.19L1016.74 445.872C1016.93 446.619 1017.1 447.429 1017.25 448.304C1017.42 449.157 1017.55 449.84 1017.63 450.352C1017.72 449.84 1017.84 449.157 1017.99 448.304C1018.16 447.429 1018.34 446.608 1018.53 445.84L1021.95 430.64H1026.02L1020.13 454H1014.95ZM1029.56 454V450.384H1035.57V440.016H1030.2V436.4H1039.57V450.384H1044.98V454H1029.56ZM1037.3 433.456C1036.49 433.456 1035.85 433.253 1035.38 432.848C1034.91 432.421 1034.68 431.856 1034.68 431.152C1034.68 430.448 1034.91 429.893 1035.38 429.488C1035.85 429.061 1036.49 428.848 1037.3 428.848C1038.11 428.848 1038.75 429.061 1039.22 429.488C1039.69 429.893 1039.93 430.448 1039.93 431.152C1039.93 431.856 1039.69 432.421 1039.22 432.848C1038.75 433.253 1038.11 433.456 1037.3 433.456ZM1054.31 454.32C1052.61 454.32 1051.22 453.712 1050.15 452.496C1049.11 451.28 1048.58 449.648 1048.58 447.6V442.832C1048.58 440.763 1049.11 439.12 1050.15 437.904C1051.2 436.688 1052.58 436.08 1054.31 436.08C1055.53 436.08 1056.55 436.389 1057.38 437.008C1058.24 437.627 1058.84 438.491 1059.18 439.6L1059.05 435.568V430.64H1063.05V454H1059.14V450.8C1058.82 451.909 1058.25 452.773 1057.42 453.392C1056.58 454.011 1055.55 454.32 1054.31 454.32ZM1055.82 450.864C1056.84 450.864 1057.63 450.555 1058.18 449.936C1058.76 449.317 1059.05 448.443 1059.05 447.312V443.088C1059.05 441.957 1058.76 441.083 1058.18 440.464C1057.63 439.845 1056.84 439.536 1055.82 439.536C1054.79 439.536 1053.99 439.813 1053.42 440.368C1052.86 440.923 1052.58 441.776 1052.58 442.928V447.472C1052.58 448.624 1052.86 449.477 1053.42 450.032C1053.99 450.587 1054.79 450.864 1055.82 450.864ZM1075.13 454.32C1073.64 454.32 1072.34 454.032 1071.23 453.456C1070.12 452.88 1069.25 452.069 1068.64 451.024C1068.04 449.957 1067.74 448.709 1067.74 447.28V443.12C1067.74 441.691 1068.04 440.453 1068.64 439.408C1069.25 438.341 1070.12 437.52 1071.23 436.944C1072.34 436.368 1073.64 436.08 1075.13 436.08C1076.6 436.08 1077.88 436.368 1078.97 436.944C1080.08 437.52 1080.93 438.331 1081.53 439.376C1082.15 440.4 1082.46 441.605 1082.46 442.992V446.192H1071.58V447.408C1071.58 448.603 1071.89 449.509 1072.51 450.128C1073.13 450.725 1074 451.024 1075.13 451.024C1075.96 451.024 1076.67 450.885 1077.24 450.608C1077.84 450.309 1078.19 449.883 1078.3 449.328H1082.27C1081.99 450.843 1081.2 452.059 1079.9 452.976C1078.6 453.872 1077.01 454.32 1075.13 454.32ZM1071.58 442.992V443.6L1078.62 443.568V442.96C1078.62 441.744 1078.32 440.805 1077.72 440.144C1077.13 439.483 1076.26 439.152 1075.13 439.152C1073.96 439.152 1073.07 439.493 1072.48 440.176C1071.88 440.837 1071.58 441.776 1071.58 442.992ZM1094.29 454.288C1092.03 454.288 1090.23 453.659 1088.91 452.4C1087.59 451.12 1086.93 449.403 1086.93 447.248V443.152C1086.93 440.976 1087.59 439.259 1088.91 438C1090.23 436.741 1092.03 436.112 1094.29 436.112C1096.55 436.112 1098.34 436.741 1099.66 438C1100.99 439.259 1101.65 440.976 1101.65 443.152V447.248C1101.65 449.403 1100.99 451.12 1099.66 452.4C1098.34 453.659 1096.55 454.288 1094.29 454.288ZM1094.29 450.8C1095.35 450.8 1096.18 450.512 1096.75 449.936C1097.35 449.339 1097.65 448.485 1097.65 447.376V443.024C1097.65 441.915 1097.35 441.072 1096.75 440.496C1096.18 439.899 1095.35 439.6 1094.29 439.6C1093.22 439.6 1092.39 439.899 1091.79 440.496C1091.22 441.072 1090.93 441.915 1090.93 443.024V447.376C1090.93 448.485 1091.22 449.339 1091.79 449.936C1092.39 450.512 1093.22 450.8 1094.29 450.8Z" fill="white"/>
</svg>
