<svg width="1280" height="720" viewBox="0 0 1280 720" fill="none" xmlns="http://www.w3.org/2000/svg">
<rect width="1280" height="720" fill="#75009E"/>
<path d="M191.2 334.64C186.72 334.64 183.157 333.36 180.512 330.8C177.909 328.24 176.608 324.699 176.608 320.176V301.104C176.608 296.581 177.909 293.04 180.512 290.48C183.157 287.92 186.72 286.64 191.2 286.64C195.68 286.64 199.221 287.92 201.824 290.48C204.469 293.04 205.792 296.56 205.792 301.04V320.176C205.792 324.699 204.469 328.24 201.824 330.8C199.221 333.36 195.68 334.64 191.2 334.64ZM191.2 327.6C193.376 327.6 195.019 327.024 196.128 325.872C197.237 324.677 197.792 322.992 197.792 320.816V300.464C197.792 298.288 197.237 296.624 196.128 295.472C195.019 294.277 193.376 293.68 191.2 293.68C189.024 293.68 187.381 294.277 186.272 295.472C185.163 296.624 184.608 298.288 184.608 300.464V320.816C184.608 322.992 185.163 324.677 186.272 325.872C187.381 327.024 189.024 327.6 191.2 327.6ZM213.383 334V298.8H220.039V303.92H220.231C220.359 302.213 220.956 300.827 222.023 299.76C223.09 298.693 224.434 298.16 226.055 298.16C227.634 298.16 228.978 298.672 230.087 299.696C231.196 300.677 231.943 302.021 232.327 303.728C232.498 302.021 233.116 300.677 234.183 299.696C235.292 298.672 236.679 298.16 238.343 298.16C240.476 298.16 242.247 299.013 243.655 300.72C245.063 302.384 245.767 304.539 245.767 307.184V334H238.727V307.76C238.727 306.608 238.45 305.712 237.895 305.072C237.383 304.389 236.636 304.048 235.655 304.048C233.735 304.048 232.775 305.285 232.775 307.76V334H226.375V307.76C226.375 306.608 226.119 305.712 225.607 305.072C225.138 304.389 224.434 304.048 223.495 304.048C221.447 304.048 220.423 305.285 220.423 307.76V334H213.383ZM268.014 334.64C265.027 334.64 262.425 334.064 260.206 332.912C257.987 331.76 256.259 330.139 255.022 328.048C253.827 325.915 253.23 323.419 253.23 320.56V312.24C253.23 309.381 253.827 306.907 255.022 304.816C256.259 302.683 257.987 301.04 260.206 299.888C262.425 298.736 265.027 298.16 268.014 298.16C270.958 298.16 273.518 298.736 275.694 299.888C277.913 301.04 279.619 302.661 280.814 304.752C282.051 306.8 282.67 309.211 282.67 311.984V318.384H260.91V320.816C260.91 323.205 261.529 325.019 262.766 326.256C264.003 327.451 265.753 328.048 268.014 328.048C269.678 328.048 271.086 327.771 272.238 327.216C273.433 326.619 274.137 325.765 274.35 324.656H282.286C281.731 327.685 280.153 330.117 277.55 331.952C274.947 333.744 271.769 334.64 268.014 334.64ZM260.91 311.984V313.2L274.99 313.136V311.92C274.99 309.488 274.393 307.611 273.198 306.288C272.003 304.965 270.275 304.304 268.014 304.304C265.667 304.304 263.897 304.987 262.702 306.352C261.507 307.675 260.91 309.552 260.91 311.984ZM296.853 345.52V338.864H306.773C308.65 338.864 310.101 338.352 311.125 337.328C312.149 336.347 312.661 335.003 312.661 333.296V331.184L312.789 325.68C312.064 327.643 310.89 329.179 309.269 330.288C307.69 331.355 305.749 331.888 303.445 331.888C299.861 331.888 297.002 330.693 294.869 328.304C292.778 325.872 291.733 322.587 291.733 318.448V311.6C291.733 307.504 292.778 304.24 294.869 301.808C297.002 299.376 299.861 298.16 303.445 298.16C305.749 298.16 307.69 298.715 309.269 299.824C310.89 300.891 312.064 302.427 312.789 304.432V298.8H320.597V333.488C320.597 337.2 319.36 340.123 316.885 342.256C314.453 344.432 311.125 345.52 306.901 345.52H296.853ZM306.133 325.04C308.181 325.04 309.76 324.443 310.869 323.248C312.021 322.011 312.597 320.304 312.597 318.128V311.984C312.597 309.808 312.021 308.123 310.869 306.928C309.76 305.691 308.181 305.072 306.133 305.072C304.085 305.072 302.506 305.669 301.397 306.864C300.288 308.016 299.733 309.637 299.733 311.728V318.384C299.733 320.475 300.288 322.117 301.397 323.312C302.506 324.464 304.085 325.04 306.133 325.04ZM340.796 334.64C337.212 334.64 334.375 333.637 332.284 331.632C330.236 329.584 329.212 326.917 329.212 323.632C329.212 320.219 330.385 317.509 332.732 315.504C335.079 313.456 338.3 312.432 342.396 312.432H350.972V309.936C350.972 306.395 348.903 304.624 344.764 304.624C342.887 304.624 341.393 304.987 340.284 305.712C339.175 306.437 338.556 307.461 338.428 308.784H330.748C330.919 305.627 332.241 303.067 334.716 301.104C337.233 299.141 340.604 298.16 344.828 298.16C349.308 298.16 352.785 299.205 355.26 301.296C357.735 303.387 358.972 306.331 358.972 310.128V334H351.164V327.408C350.865 329.669 349.799 331.44 347.964 332.72C346.129 334 343.74 334.64 340.796 334.64ZM343.356 328.112C345.703 328.112 347.559 327.536 348.924 326.384C350.289 325.232 350.972 323.696 350.972 321.776V317.616H342.78C341.031 317.616 339.644 318.107 338.62 319.088C337.596 320.069 337.084 321.328 337.084 322.864C337.084 324.443 337.617 325.723 338.684 326.704C339.793 327.643 341.351 328.112 343.356 328.112ZM381.155 334.64C376.419 334.64 372.664 333.339 369.891 330.736C367.16 328.133 365.795 324.613 365.795 320.176H373.795C373.795 322.48 374.435 324.315 375.715 325.68C377.038 327.003 378.851 327.664 381.155 327.664C383.416 327.664 385.208 327.003 386.531 325.68C387.854 324.357 388.515 322.544 388.515 320.24V287.28H396.515V320.24C396.515 324.677 395.128 328.197 392.355 330.8C389.624 333.36 385.891 334.64 381.155 334.64ZM421.642 334.64C418.485 334.64 415.711 334.085 413.322 332.976C410.975 331.867 409.141 330.288 407.818 328.24C406.538 326.149 405.898 323.675 405.898 320.816H413.77C413.77 322.907 414.474 324.571 415.882 325.808C417.333 327.045 419.253 327.664 421.642 327.664C423.946 327.664 425.759 327.067 427.082 325.872C428.447 324.635 429.13 322.992 429.13 320.944C429.13 319.408 428.682 318.064 427.786 316.912C426.933 315.717 425.695 314.907 424.074 314.48L417.802 312.88C414.431 312.027 411.765 310.427 409.802 308.08C407.839 305.733 406.858 302.939 406.858 299.696C406.858 295.728 408.159 292.571 410.762 290.224C413.365 287.835 416.842 286.64 421.194 286.64C424.138 286.64 426.698 287.173 428.874 288.24C431.093 289.307 432.799 290.821 433.994 292.784C435.189 294.704 435.786 296.965 435.786 299.568H427.978C427.978 297.776 427.359 296.325 426.122 295.216C424.885 294.107 423.242 293.552 421.194 293.552C419.189 293.552 417.589 294.107 416.394 295.216C415.242 296.283 414.666 297.691 414.666 299.44C414.666 300.891 415.071 302.085 415.882 303.024C416.735 303.963 417.909 304.645 419.402 305.072L425.866 306.672C429.322 307.525 432.031 309.232 433.994 311.792C435.999 314.352 437.002 317.403 437.002 320.944C437.002 323.717 436.362 326.128 435.082 328.176C433.845 330.224 432.074 331.824 429.77 332.976C427.466 334.085 424.757 334.64 421.642 334.64ZM459.825 334.64C458.033 334.64 456.582 334.107 455.473 333.04C454.406 331.931 453.873 330.501 453.873 328.752C453.873 327.003 454.406 325.573 455.473 324.464C456.582 323.355 458.033 322.8 459.825 322.8C461.617 322.8 463.046 323.355 464.113 324.464C465.222 325.573 465.777 327.003 465.777 328.752C465.777 330.501 465.222 331.931 464.113 333.04C463.046 334.107 461.617 334.64 459.825 334.64ZM498.2 334.64C493.72 334.64 490.157 333.36 487.512 330.8C484.909 328.24 483.608 324.699 483.608 320.176V301.104C483.608 296.581 484.909 293.04 487.512 290.48C490.157 287.92 493.72 286.64 498.2 286.64C502.68 286.64 506.221 287.92 508.824 290.48C511.469 293.04 512.792 296.56 512.792 301.04V320.176C512.792 324.699 511.469 328.24 508.824 330.8C506.221 333.36 502.68 334.64 498.2 334.64ZM498.2 327.6C500.376 327.6 502.019 327.024 503.128 325.872C504.237 324.677 504.792 322.992 504.792 320.816V300.464C504.792 298.288 504.237 296.624 503.128 295.472C502.019 294.277 500.376 293.68 498.2 293.68C496.024 293.68 494.381 294.277 493.272 295.472C492.163 296.624 491.608 298.288 491.608 300.464V320.816C491.608 322.992 492.163 324.677 493.272 325.872C494.381 327.024 496.024 327.6 498.2 327.6ZM522.303 334V298.8H530.111V305.392C530.538 303.173 531.583 301.424 533.247 300.144C534.911 298.821 537.023 298.16 539.583 298.16C543.039 298.16 545.791 299.312 547.839 301.616C549.93 303.92 550.975 307.013 550.975 310.896V334H542.975V311.856C542.975 309.68 542.399 308.016 541.247 306.864C540.138 305.669 538.623 305.072 536.703 305.072C534.698 305.072 533.119 305.669 531.967 306.864C530.858 308.059 530.303 309.765 530.303 311.984V334H522.303ZM575.014 334.64C572.027 334.64 569.425 334.064 567.206 332.912C564.987 331.76 563.259 330.139 562.022 328.048C560.827 325.915 560.23 323.419 560.23 320.56V312.24C560.23 309.381 560.827 306.907 562.022 304.816C563.259 302.683 564.987 301.04 567.206 299.888C569.425 298.736 572.027 298.16 575.014 298.16C577.958 298.16 580.518 298.736 582.694 299.888C584.913 301.04 586.619 302.661 587.814 304.752C589.051 306.8 589.67 309.211 589.67 311.984V318.384H567.91V320.816C567.91 323.205 568.529 325.019 569.766 326.256C571.003 327.451 572.753 328.048 575.014 328.048C576.678 328.048 578.086 327.771 579.238 327.216C580.433 326.619 581.137 325.765 581.35 324.656H589.286C588.731 327.685 587.153 330.117 584.55 331.952C581.947 333.744 578.769 334.64 575.014 334.64ZM567.91 311.984V313.2L581.99 313.136V311.92C581.99 309.488 581.393 307.611 580.198 306.288C579.003 304.965 577.275 304.304 575.014 304.304C572.667 304.304 570.897 304.987 569.702 306.352C568.507 307.675 567.91 309.552 567.91 311.984ZM625.165 341.68C618.68 340.187 613.666 337.264 610.125 332.912C606.584 328.517 604.813 323.099 604.813 316.656V305.2C604.813 298.8 606.584 293.424 610.125 289.072C613.666 284.72 618.68 281.776 625.165 280.24V288.176C621.368 289.072 618.36 291.056 616.141 294.128C613.965 297.157 612.877 300.848 612.877 305.2V316.656C612.877 321.008 613.965 324.72 616.141 327.792C618.36 330.821 621.368 332.784 625.165 333.68V341.68ZM639.86 341.68V333.68C643.657 332.784 646.644 330.821 648.82 327.792C651.039 324.72 652.148 321.008 652.148 316.656V305.2C652.148 300.848 651.039 297.157 648.82 294.128C646.644 291.056 643.657 289.072 639.86 288.176V280.24C646.345 281.776 651.359 284.72 654.9 289.072C658.441 293.424 660.212 298.8 660.212 305.2V316.656C660.212 323.099 658.441 328.517 654.9 332.912C651.359 337.264 646.345 340.187 639.86 341.68Z" fill="white"/>
<rect x="172" y="378" width="499" height="100" fill="white"/>
<path d="M206.592 445V409.96H214.416L218.352 425.032L222.336 409.96H230.208V445H224.592V430.264C224.592 428.248 224.64 426.168 224.736 424.024C224.864 421.848 225.008 419.752 225.168 417.736C225.328 415.688 225.504 413.832 225.696 412.168L220.752 429.784H215.808L211.056 412.6C211.344 414.808 211.6 417.448 211.824 420.52C212.08 423.56 212.208 426.808 212.208 430.264V445H206.592ZM244.253 445.48C241.565 445.48 239.437 444.728 237.869 443.224C236.333 441.688 235.565 439.688 235.565 437.224C235.565 434.664 236.445 432.632 238.205 431.128C239.965 429.592 242.381 428.824 245.453 428.824H251.885V426.952C251.885 424.296 250.333 422.968 247.229 422.968C245.821 422.968 244.701 423.24 243.869 423.784C243.037 424.328 242.573 425.096 242.477 426.088H236.717C236.845 423.72 237.837 421.8 239.693 420.328C241.581 418.856 244.109 418.12 247.277 418.12C250.637 418.12 253.245 418.904 255.101 420.472C256.957 422.04 257.885 424.248 257.885 427.096V445H252.029V440.056C251.805 441.752 251.005 443.08 249.629 444.04C248.253 445 246.461 445.48 244.253 445.48ZM246.173 440.584C247.933 440.584 249.325 440.152 250.349 439.288C251.373 438.424 251.885 437.272 251.885 435.832V432.712H245.741C244.429 432.712 243.389 433.08 242.621 433.816C241.853 434.552 241.469 435.496 241.469 436.648C241.469 437.832 241.869 438.792 242.669 439.528C243.501 440.232 244.669 440.584 246.173 440.584ZM265.499 445V409.96H271.499V428.968H275.723L282.011 418.6H288.682L280.859 431.368L288.971 445H282.155L275.723 434.056H271.499V445H265.499ZM293.992 445V439.576H303.016V424.024H294.952V418.6H309.016V439.576H317.128V445H293.992ZM305.608 414.184C304.392 414.184 303.432 413.88 302.728 413.272C302.024 412.632 301.672 411.784 301.672 410.728C301.672 409.672 302.024 408.84 302.728 408.232C303.432 407.592 304.392 407.272 305.608 407.272C306.824 407.272 307.784 407.592 308.488 408.232C309.192 408.84 309.544 409.672 309.544 410.728C309.544 411.784 309.192 412.632 308.488 413.272C307.784 413.88 306.824 414.184 305.608 414.184ZM322.821 445V418.6H328.677V423.544C328.997 421.88 329.781 420.568 331.029 419.608C332.277 418.616 333.861 418.12 335.781 418.12C338.373 418.12 340.437 418.984 341.973 420.712C343.541 422.44 344.325 424.76 344.325 427.672V445H338.325V428.392C338.325 426.76 337.893 425.512 337.029 424.648C336.197 423.752 335.061 423.304 333.621 423.304C332.117 423.304 330.933 423.752 330.069 424.648C329.237 425.544 328.821 426.824 328.821 428.488V445H322.821ZM355.202 453.64V448.648H362.642C364.05 448.648 365.138 448.264 365.906 447.496C366.674 446.76 367.058 445.752 367.058 444.472V442.888L367.154 438.76C366.61 440.232 365.73 441.384 364.514 442.216C363.33 443.016 361.874 443.416 360.146 443.416C357.458 443.416 355.314 442.52 353.714 440.728C352.146 438.904 351.362 436.44 351.362 433.336V428.2C351.362 425.128 352.146 422.68 353.714 420.856C355.314 419.032 357.458 418.12 360.146 418.12C361.874 418.12 363.33 418.536 364.514 419.368C365.73 420.168 366.61 421.32 367.154 422.824V418.6H373.01V444.616C373.01 447.4 372.082 449.592 370.226 451.192C368.402 452.824 365.906 453.64 362.738 453.64H355.202ZM362.162 438.28C363.698 438.28 364.882 437.832 365.714 436.936C366.578 436.008 367.01 434.728 367.01 433.096V428.488C367.01 426.856 366.578 425.592 365.714 424.696C364.882 423.768 363.698 423.304 362.162 423.304C360.626 423.304 359.442 423.752 358.61 424.648C357.778 425.512 357.362 426.728 357.362 428.296V433.288C357.362 434.856 357.778 436.088 358.61 436.984C359.442 437.848 360.626 438.28 362.162 438.28ZM411.277 445V409.96H417.277V439.576H432.157V445H411.277ZM445.722 445.48C443.034 445.48 440.906 444.728 439.338 443.224C437.802 441.688 437.034 439.688 437.034 437.224C437.034 434.664 437.914 432.632 439.674 431.128C441.434 429.592 443.85 428.824 446.922 428.824H453.354V426.952C453.354 424.296 451.802 422.968 448.698 422.968C447.29 422.968 446.17 423.24 445.338 423.784C444.506 424.328 444.042 425.096 443.946 426.088H438.186C438.314 423.72 439.306 421.8 441.162 420.328C443.05 418.856 445.578 418.12 448.746 418.12C452.106 418.12 454.714 418.904 456.57 420.472C458.426 422.04 459.354 424.248 459.354 427.096V445H453.498V440.056C453.274 441.752 452.474 443.08 451.098 444.04C449.722 445 447.93 445.48 445.722 445.48ZM447.642 440.584C449.402 440.584 450.794 440.152 451.818 439.288C452.842 438.424 453.354 437.272 453.354 435.832V432.712H447.21C445.898 432.712 444.858 433.08 444.09 433.816C443.322 434.552 442.938 435.496 442.938 436.648C442.938 437.832 443.338 438.792 444.138 439.528C444.97 440.232 446.138 440.584 447.642 440.584ZM470.951 453.64L474.695 443.56L464.759 418.6H471.095L476.183 432.088C476.471 432.888 476.759 433.768 477.047 434.728C477.335 435.656 477.543 436.52 477.671 437.32C477.767 436.52 477.943 435.656 478.199 434.728C478.487 433.768 478.775 432.888 479.063 432.088L483.767 418.6H490.103L477.239 453.64H470.951ZM506.213 445.432C502.821 445.432 500.133 444.488 498.148 442.6C496.164 440.68 495.173 438.104 495.173 434.872V428.728C495.173 425.464 496.164 422.888 498.148 421C500.133 419.112 502.821 418.168 506.213 418.168C509.605 418.168 512.293 419.112 514.277 421C516.261 422.888 517.253 425.464 517.253 428.728V434.872C517.253 438.104 516.261 440.68 514.277 442.6C512.293 444.488 509.605 445.432 506.213 445.432ZM506.213 440.2C507.813 440.2 509.045 439.768 509.909 438.904C510.805 438.008 511.253 436.728 511.253 435.064V428.536C511.253 426.872 510.805 425.608 509.909 424.744C509.045 423.848 507.813 423.4 506.213 423.4C504.613 423.4 503.365 423.848 502.469 424.744C501.605 425.608 501.173 426.872 501.173 428.536V435.064C501.173 436.728 501.605 438.008 502.469 438.904C503.365 439.768 504.613 440.2 506.213 440.2ZM534.994 445.48C531.634 445.48 528.994 444.552 527.074 442.696C525.154 440.808 524.194 438.248 524.194 435.016V418.6H530.194V434.968C530.194 436.632 530.61 437.928 531.442 438.856C532.274 439.784 533.458 440.248 534.994 440.248C536.498 440.248 537.666 439.784 538.498 438.856C539.362 437.928 539.794 436.632 539.794 434.968V418.6H545.794V435.016C545.794 438.248 544.818 440.808 542.866 442.696C540.914 444.552 538.29 445.48 534.994 445.48ZM566.415 445C563.951 445 561.983 444.296 560.511 442.888C559.071 441.448 558.351 439.512 558.351 437.08V424.024H551.055V418.6H558.351V411.16H564.399V418.6H574.911V424.024H564.399V436.936C564.399 437.704 564.607 438.344 565.023 438.856C565.471 439.336 566.079 439.576 566.847 439.576H574.671V445H566.415ZM591.452 445.432C588.316 445.432 585.836 444.728 584.012 443.32C582.188 441.88 581.276 439.944 581.276 437.512H587.18C587.18 438.536 587.548 439.32 588.284 439.864C589.052 440.408 590.108 440.68 591.452 440.68H593.564C595.004 440.68 596.108 440.408 596.876 439.864C597.676 439.32 598.076 438.536 598.076 437.512C598.076 436.552 597.804 435.848 597.26 435.4C596.716 434.92 595.884 434.6 594.764 434.44L588.188 433.576C586.076 433.288 584.444 432.472 583.292 431.128C582.172 429.784 581.612 428.04 581.612 425.896C581.612 423.4 582.444 421.496 584.108 420.184C585.772 418.84 588.172 418.168 591.308 418.168H593.516C596.46 418.168 598.828 418.84 600.62 420.184C602.412 421.528 603.34 423.32 603.404 425.56H597.452C597.42 424.728 597.052 424.072 596.348 423.592C595.644 423.08 594.7 422.824 593.516 422.824H591.308C590.028 422.824 589.052 423.096 588.38 423.64C587.708 424.152 587.372 424.856 587.372 425.752C587.372 426.552 587.612 427.144 588.092 427.528C588.604 427.912 589.34 428.152 590.3 428.248L596.492 429.112C598.924 429.4 600.748 430.264 601.964 431.704C603.212 433.112 603.836 435.016 603.836 437.416C603.836 439.976 602.956 441.96 601.196 443.368C599.468 444.744 596.924 445.432 593.564 445.432H591.452Z" fill="#75009E"/>
<path d="M1052.95 350.712L973.412 396.863C966.662 400.775 958 396.038 958 388.15V295.85C958 287.975 966.65 283.225 973.412 287.15L1052.95 333.3C1054.49 334.177 1055.76 335.444 1056.65 336.973C1057.54 338.502 1058 340.238 1058 342.006C1058 343.774 1057.54 345.511 1056.65 347.04C1055.76 348.569 1054.49 349.836 1052.95 350.712Z" fill="white"/>
<path d="M914.464 454V430.64H922.24C923.797 430.64 925.152 430.939 926.304 431.536C927.477 432.133 928.384 432.976 929.024 434.064C929.664 435.131 929.984 436.389 929.984 437.84C929.984 439.291 929.664 440.56 929.024 441.648C928.384 442.715 927.477 443.547 926.304 444.144C925.152 444.741 923.797 445.04 922.24 445.04H918.464V454H914.464ZM918.464 441.52H922.24C923.371 441.52 924.267 441.179 924.928 440.496C925.589 439.813 925.92 438.928 925.92 437.84C925.92 436.752 925.589 435.867 924.928 435.184C924.267 434.501 923.371 434.16 922.24 434.16H918.464V441.52ZM943.636 454C941.886 454 940.478 453.477 939.411 452.432C938.366 451.387 937.844 450.011 937.844 448.304V434.256H932.052V430.64H941.844V448.208C941.844 448.869 942.025 449.403 942.388 449.808C942.772 450.192 943.284 450.384 943.924 450.384H949.076V454H943.636ZM958.023 454.32C956.231 454.32 954.812 453.819 953.767 452.816C952.743 451.792 952.231 450.459 952.231 448.816C952.231 447.109 952.818 445.755 953.991 444.752C955.164 443.728 956.775 443.216 958.823 443.216H963.111V441.968C963.111 440.197 962.076 439.312 960.007 439.312C959.068 439.312 958.322 439.493 957.767 439.856C957.212 440.219 956.903 440.731 956.839 441.392H952.999C953.084 439.813 953.746 438.533 954.983 437.552C956.242 436.571 957.927 436.08 960.039 436.08C962.279 436.08 964.018 436.603 965.255 437.648C966.492 438.693 967.111 440.165 967.111 442.064V454H963.207V450.704C963.058 451.835 962.524 452.72 961.607 453.36C960.69 454 959.495 454.32 958.023 454.32ZM959.303 451.056C960.476 451.056 961.404 450.768 962.087 450.192C962.77 449.616 963.111 448.848 963.111 447.888V445.808H959.015C958.14 445.808 957.447 446.053 956.935 446.544C956.423 447.035 956.167 447.664 956.167 448.432C956.167 449.221 956.434 449.861 956.967 450.352C957.522 450.821 958.3 451.056 959.303 451.056ZM974.843 459.76L977.339 453.04L970.715 436.4H974.939L978.331 445.392C978.523 445.925 978.715 446.512 978.907 447.152C979.099 447.771 979.237 448.347 979.323 448.88C979.387 448.347 979.504 447.771 979.675 447.152C979.867 446.512 980.059 445.925 980.251 445.392L983.387 436.4H987.611L979.035 459.76H974.843ZM1014.95 454L1009.06 430.64H1013.19L1016.74 445.872C1016.93 446.619 1017.1 447.429 1017.25 448.304C1017.42 449.157 1017.55 449.84 1017.63 450.352C1017.72 449.84 1017.84 449.157 1017.99 448.304C1018.16 447.429 1018.34 446.608 1018.53 445.84L1021.95 430.64H1026.02L1020.13 454H1014.95ZM1029.56 454V450.384H1035.57V440.016H1030.2V436.4H1039.57V450.384H1044.98V454H1029.56ZM1037.3 433.456C1036.49 433.456 1035.85 433.253 1035.38 432.848C1034.91 432.421 1034.68 431.856 1034.68 431.152C1034.68 430.448 1034.91 429.893 1035.38 429.488C1035.85 429.061 1036.49 428.848 1037.3 428.848C1038.11 428.848 1038.75 429.061 1039.22 429.488C1039.69 429.893 1039.93 430.448 1039.93 431.152C1039.93 431.856 1039.69 432.421 1039.22 432.848C1038.75 433.253 1038.11 433.456 1037.3 433.456ZM1054.31 454.32C1052.61 454.32 1051.22 453.712 1050.15 452.496C1049.11 451.28 1048.58 449.648 1048.58 447.6V442.832C1048.58 440.763 1049.11 439.12 1050.15 437.904C1051.2 436.688 1052.58 436.08 1054.31 436.08C1055.53 436.08 1056.55 436.389 1057.38 437.008C1058.24 437.627 1058.84 438.491 1059.18 439.6L1059.05 435.568V430.64H1063.05V454H1059.14V450.8C1058.82 451.909 1058.25 452.773 1057.42 453.392C1056.58 454.011 1055.55 454.32 1054.31 454.32ZM1055.82 450.864C1056.84 450.864 1057.63 450.555 1058.18 449.936C1058.76 449.317 1059.05 448.443 1059.05 447.312V443.088C1059.05 441.957 1058.76 441.083 1058.18 440.464C1057.63 439.845 1056.84 439.536 1055.82 439.536C1054.79 439.536 1053.99 439.813 1053.42 440.368C1052.86 440.923 1052.58 441.776 1052.58 442.928V447.472C1052.58 448.624 1052.86 449.477 1053.42 450.032C1053.99 450.587 1054.79 450.864 1055.82 450.864ZM1075.13 454.32C1073.64 454.32 1072.34 454.032 1071.23 453.456C1070.12 452.88 1069.25 452.069 1068.64 451.024C1068.04 449.957 1067.74 448.709 1067.74 447.28V443.12C1067.74 441.691 1068.04 440.453 1068.64 439.408C1069.25 438.341 1070.12 437.52 1071.23 436.944C1072.34 436.368 1073.64 436.08 1075.13 436.08C1076.6 436.08 1077.88 436.368 1078.97 436.944C1080.08 437.52 1080.93 438.331 1081.53 439.376C1082.15 440.4 1082.46 441.605 1082.46 442.992V446.192H1071.58V447.408C1071.58 448.603 1071.89 449.509 1072.51 450.128C1073.13 450.725 1074 451.024 1075.13 451.024C1075.96 451.024 1076.67 450.885 1077.24 450.608C1077.84 450.309 1078.19 449.883 1078.3 449.328H1082.27C1081.99 450.843 1081.2 452.059 1079.9 452.976C1078.6 453.872 1077.01 454.32 1075.13 454.32ZM1071.58 442.992V443.6L1078.62 443.568V442.96C1078.62 441.744 1078.32 440.805 1077.72 440.144C1077.13 439.483 1076.26 439.152 1075.13 439.152C1073.96 439.152 1073.07 439.493 1072.48 440.176C1071.88 440.837 1071.58 441.776 1071.58 442.992ZM1094.29 454.288C1092.03 454.288 1090.23 453.659 1088.91 452.4C1087.59 451.12 1086.93 449.403 1086.93 447.248V443.152C1086.93 440.976 1087.59 439.259 1088.91 438C1090.23 436.741 1092.03 436.112 1094.29 436.112C1096.55 436.112 1098.34 436.741 1099.66 438C1100.99 439.259 1101.65 440.976 1101.65 443.152V447.248C1101.65 449.403 1100.99 451.12 1099.66 452.4C1098.34 453.659 1096.55 454.288 1094.29 454.288ZM1094.29 450.8C1095.35 450.8 1096.18 450.512 1096.75 449.936C1097.35 449.339 1097.65 448.485 1097.65 447.376V443.024C1097.65 441.915 1097.35 441.072 1096.75 440.496C1096.18 439.899 1095.35 439.6 1094.29 439.6C1093.22 439.6 1092.39 439.899 1091.79 440.496C1091.22 441.072 1090.93 441.915 1090.93 443.024V447.376C1090.93 448.485 1091.22 449.339 1091.79 449.936C1092.39 450.512 1093.22 450.8 1094.29 450.8Z" fill="white"/>
</svg>
